<svg width="24" height="24" viewBox="0 0 24 24" fill="#fff" xmlns="http://www.w3.org/2000/svg">
<path fill-rule="evenodd" clip-rule="evenodd" d="M8.781 8.46912C8.85084 8.53879 8.90626 8.62155 8.94407 8.71267C8.98188 8.80379 9.00134 8.90147 9.00134 9.00012C9.00134 9.09877 8.98188 9.19645 8.94407 9.28757C8.90626 9.37869 8.85084 9.46145 8.781 9.53112L4.8105 13.5001L8.781 17.4691C8.92183 17.61 9.00095 17.801 9.00095 18.0001C9.00095 18.1993 8.92183 18.3903 8.781 18.5311C8.64017 18.672 8.44916 18.7511 8.25 18.7511C8.05083 18.7511 7.85983 18.672 7.719 18.5311L3.219 14.0311C3.14915 13.9615 3.09374 13.8787 3.05593 13.7876C3.01812 13.6965 2.99866 13.5988 2.99866 13.5001C2.99866 13.4015 3.01812 13.3038 3.05593 13.2127C3.09374 13.1216 3.14915 13.0388 3.219 12.9691L7.719 8.46912C7.78867 8.39927 7.87143 8.34386 7.96255 8.30605C8.05367 8.26824 8.15135 8.24878 8.25 8.24878C8.34865 8.24878 8.44633 8.26824 8.53745 8.30605C8.62857 8.34386 8.71133 8.39927 8.781 8.46912Z" fill="gray"/>
<path fill-rule="evenodd" clip-rule="evenodd" d="M20.25 3.75C20.4489 3.75 20.6397 3.82902 20.7803 3.96967C20.921 4.11032 21 4.30109 21 4.5V10.5C21 11.4946 20.6049 12.4484 19.9016 13.1517C19.1984 13.8549 18.2446 14.25 17.25 14.25H4.5C4.30109 14.25 4.11032 14.171 3.96967 14.0303C3.82902 13.8897 3.75 13.6989 3.75 13.5C3.75 13.3011 3.82902 13.1103 3.96967 12.9697C4.11032 12.829 4.30109 12.75 4.5 12.75H17.25C17.8467 12.75 18.419 12.5129 18.841 12.091C19.2629 11.669 19.5 11.0967 19.5 10.5V4.5C19.5 4.30109 19.579 4.11032 19.7197 3.96967C19.8603 3.82902 20.0511 3.75 20.25 3.75Z" fill="gray"/>
</svg>
